<svg width="47" height="50" viewBox="0 0 47 50" fill="none" xmlns="http://www.w3.org/2000/svg">
<g clip-path="url(#clip0_1_167)">
<path d="M46.5704 47.3164L32.2992 32.0414C34.9591 28.6523 36.5623 24.2922 36.5623 19.5312C36.5623 8.74453 28.3424 0 18.2029 0C8.06337 0 -0.156494 8.74453 -0.156494 19.5312C-0.156494 30.318 8.06337 39.0625 18.2029 39.0625C22.8096 39.0625 27.0176 37.2531 30.2415 34.2703L44.4928 49.5266C45.0663 50.1368 45.9968 50.1368 46.5704 49.5266C47.1432 48.9164 47.1432 47.9273 46.5704 47.3164H46.5704ZM18.2029 35.9633C9.67238 35.9633 2.75677 28.6062 2.75677 19.5312C2.75677 10.4562 9.67238 3.09922 18.2029 3.09922C26.7334 3.09922 33.649 10.4562 33.649 19.5312C33.649 28.6062 26.7334 35.9633 18.2029 35.9633Z" fill="#16813B"/>
</g>
<defs>
<clipPath id="clip0_1_167">
<rect width="47" height="50" fill="white"/>
</clipPath>
</defs>
</svg>
